<svg aria-hidden="true" style="position: absolute; width: 0; height: 0; overflow: hidden;" version="1.1" xmlns="http://www.w3.org/2000/svg" xmlns:xlink="http://www.w3.org/1999/xlink">
  <defs>
    <symbol id="instagram" viewBox="0 0 32 32">
      <path d="M31.969 9.408c-0.075-1.7-0.35-2.869-0.744-3.882-0.406-1.075-1.031-2.038-1.85-2.838-0.8-0.813-1.769-1.444-2.832-1.844-1.019-0.394-2.182-0.669-3.882-0.744-1.713-0.081-2.257-0.1-6.601-0.1s-4.888 0.019-6.595 0.094c-1.7 0.075-2.869 0.35-3.882 0.744-1.075 0.406-2.038 1.031-2.838 1.85-0.813 0.8-1.444 1.769-1.844 2.832-0.394 1.019-0.669 2.182-0.744 3.882-0.081 1.713-0.1 2.257-0.1 6.601s0.019 4.888 0.094 6.595c0.075 1.7 0.35 2.869 0.744 3.882 0.406 1.075 1.038 2.038 1.85 2.838 0.8 0.813 1.769 1.444 2.832 1.844 1.019 0.394 2.182 0.669 3.882 0.744 1.706 0.075 2.25 0.094 6.595 0.094s4.888-0.018 6.595-0.094c1.7-0.075 2.869-0.35 3.882-0.744 2.151-0.831 3.851-2.532 4.682-4.682 0.394-1.019 0.669-2.182 0.744-3.882 0.075-1.707 0.094-2.251 0.094-6.595s-0.006-4.888-0.081-6.595zM29.087 22.473c-0.069 1.563-0.331 2.407-0.55 2.969-0.538 1.394-1.644 2.501-3.038 3.038-0.563 0.219-1.413 0.481-2.969 0.55-1.688 0.075-2.194 0.094-6.464 0.094s-4.782-0.018-6.464-0.094c-1.563-0.069-2.407-0.331-2.969-0.55-0.694-0.256-1.325-0.663-1.838-1.194-0.531-0.519-0.938-1.144-1.194-1.838-0.219-0.563-0.481-1.413-0.55-2.969-0.075-1.688-0.094-2.194-0.094-6.464s0.019-4.782 0.094-6.464c0.069-1.563 0.331-2.407 0.55-2.969 0.256-0.694 0.663-1.325 1.2-1.838 0.519-0.531 1.144-0.938 1.838-1.194 0.563-0.219 1.413-0.481 2.969-0.55 1.688-0.075 2.194-0.094 6.464-0.094 4.276 0 4.782 0.019 6.464 0.094 1.563 0.069 2.407 0.331 2.969 0.55 0.694 0.256 1.325 0.662 1.838 1.194 0.531 0.519 0.938 1.144 1.194 1.838 0.219 0.563 0.481 1.413 0.55 2.969 0.075 1.688 0.094 2.194 0.094 6.464s-0.019 4.77-0.094 6.457z"></path>
      <path d="M16.059 7.782c-4.538 0-8.22 3.682-8.22 8.22s3.682 8.22 8.22 8.22c4.539 0 8.22-3.682 8.22-8.22s-3.682-8.22-8.22-8.22zM16.059 21.335c-2.944 0-5.332-2.388-5.332-5.332s2.388-5.332 5.332-5.332c2.944 0 5.332 2.388 5.332 5.332s-2.388 5.332-5.332 5.332z"></path>
      <path d="M26.524 7.457c0 1.060-0.859 1.919-1.919 1.919s-1.919-0.859-1.919-1.919c0-1.060 0.859-1.919 1.919-1.919s1.919 0.859 1.919 1.919z"></path>
    </symbol>
    <symbol id="twitter" viewBox="0 0 32 32">
      <path d="M32 6.078c-1.19 0.522-2.458 0.868-3.78 1.036 1.36-0.812 2.398-2.088 2.886-3.626-1.268 0.756-2.668 1.29-4.16 1.588-1.204-1.282-2.92-2.076-4.792-2.076-3.632 0-6.556 2.948-6.556 6.562 0 0.52 0.044 1.020 0.152 1.496-5.454-0.266-10.28-2.88-13.522-6.862-0.566 0.982-0.898 2.106-0.898 3.316 0 2.272 1.17 4.286 2.914 5.452-1.054-0.020-2.088-0.326-2.964-0.808 0 0.020 0 0.046 0 0.072 0 3.188 2.274 5.836 5.256 6.446-0.534 0.146-1.116 0.216-1.72 0.216-0.42 0-0.844-0.024-1.242-0.112 0.85 2.598 3.262 4.508 6.13 4.57-2.232 1.746-5.066 2.798-8.134 2.798-0.538 0-1.054-0.024-1.57-0.090 2.906 1.874 6.35 2.944 10.064 2.944 12.072 0 18.672-10 18.672-18.668 0-0.29-0.010-0.57-0.024-0.848 1.302-0.924 2.396-2.078 3.288-3.406z"></path>
    </symbol>
    <symbol id="facebook" viewBox="0 0 32 32">
      <path d="M21.329 5.313h2.921v-5.088c-0.504-0.069-2.237-0.225-4.256-0.225-4.212 0-7.097 2.649-7.097 7.519v4.481h-4.648v5.688h4.648v14.312h5.699v-14.311h4.46l0.708-5.688h-5.169v-3.919c0.001-1.644 0.444-2.769 2.735-2.769z"></path>
    </symbol>
    <symbol id="linkedin" viewBox="0 0 32 32">
      <path d="M31.992 32v-0.001h0.008v-11.736c0-5.741-1.236-10.164-7.948-10.164-3.227 0-5.392 1.771-6.276 3.449h-0.093v-2.913h-6.364v21.364h6.627v-10.579c0-2.785 0.528-5.479 3.977-5.479 3.399 0 3.449 3.179 3.449 5.657v10.401h6.62z"></path>
      <path d="M0.528 10.636h6.635v21.364h-6.635v-21.364z"></path>
      <path d="M3.843-0c-2.121 0-3.843 1.721-3.843 3.843s1.721 3.879 3.843 3.879c2.121 0 3.843-1.757 3.843-3.879-0.001-2.121-1.723-3.843-3.843-3.843v0z"></path>
    </symbol>
    <symbol id="menu-burger" viewBox="0 0 32 32">
      <path stroke-linejoin="round" stroke-linecap="round" stroke-miterlimit="4" stroke-width="3" d="M1.348 25.043h29.538M1.348 15.735h29.538M1.348 6.428h29.538"></path>
    </symbol>
    <symbol id="icon-bulb" viewBox="0 0 32 32">
      <path d="M18.723 19.994c1.238-0.328 2.309-1.035 3.1-2.047 0.969-1.24 1.391-2.783 1.188-4.343s-1.006-2.945-2.26-3.896c-1.215-0.922-2.724-1.324-4.249-1.133s-2.888 0.954-3.838 2.147c-0.814 1.023-1.253 2.253-1.27 3.557-0.026 2.117-0.74 4.177-2.009 5.801l-1.389 1.778c-0.616 0.788-0.476 1.931 0.313 2.547l1.33 1.039c0.788 0.616 1.931 0.476 2.547-0.313l1.389-1.777c1.283-1.642 3.060-2.808 5.149-3.36zM12.141 14.288c0.014-1.136 0.397-2.208 1.107-3.1 1.706-2.143 4.869-2.54 7.050-0.884 1.094 0.831 1.794 2.036 1.97 3.397s-0.191 2.705-1.036 3.786c-0.689 0.882-1.623 1.499-2.702 1.784-2.201 0.583-4.088 1.794-5.465 3.508l-3.007-2.349c1.316-1.735 2.054-3.91 2.082-6.141zM8.741 22.119l0.186-0.239 2.742 2.698-0.073 0.093c-0.038 0.049-0.081 0.093-0.126 0.133l-2.73-2.686zM9.391 21.287l0.209-0.268 3.011 2.353-0.479 0.613-2.742-2.698zM8.768 23.816c-0.317-0.247-0.455-0.639-0.396-1.010l2.31 2.273c-0.206-0.014-0.409-0.087-0.584-0.223l-1.33-1.039z"></path>
      <path d="M13.966 12.522c0.098-0.172 0.21-0.339 0.335-0.496 0.129-0.162 0.102-0.397-0.060-0.525-0.161-0.128-0.397-0.102-0.525 0.060-0.149 0.188-0.284 0.387-0.401 0.594-0.092 0.163-0.049 0.367 0.095 0.479 0.014 0.011 0.030 0.022 0.046 0.031 0.18 0.102 0.408 0.039 0.51-0.141z"></path>
      <path d="M12.203 18.353c0.030 0.024 0.065 0.043 0.104 0.057 0.194 0.070 0.409-0.031 0.478-0.225 0.449-1.248 0.685-2.554 0.702-3.88 0.003-0.219 0.024-0.438 0.064-0.651 0.038-0.203-0.095-0.398-0.298-0.437s-0.398 0.095-0.437 0.298c-0.048 0.255-0.074 0.517-0.077 0.78-0.015 1.243-0.237 2.466-0.658 3.636-0.056 0.156-0.002 0.325 0.121 0.421z"></path>
      <path d="M19.534 17.784c-0.099-0.181-0.326-0.248-0.508-0.148-0.263 0.144-0.545 0.256-0.839 0.334-0.2 0.053-0.319 0.258-0.266 0.457 0.022 0.082 0.069 0.15 0.131 0.199 0.089 0.070 0.208 0.098 0.326 0.067 0.352-0.093 0.691-0.228 1.007-0.401 0.181-0.099 0.248-0.326 0.148-0.508z"></path>
      <path d="M19.528 11.409c1.625 1.269 1.914 3.624 0.644 5.248-0.072 0.092-0.149 0.182-0.229 0.267-0.141 0.15-0.134 0.387 0.016 0.529 0.009 0.008 0.017 0.015 0.026 0.023 0.151 0.118 0.369 0.103 0.502-0.039 0.095-0.101 0.187-0.208 0.273-0.319 1.523-1.95 1.176-4.775-0.773-6.298-0.163-0.127-0.398-0.098-0.525 0.064s-0.098 0.398 0.064 0.525z"></path>
      <path d="M21.214 9.251c0.163 0.127 0.398 0.098 0.525-0.064l1.289-1.65c0.127-0.163 0.098-0.398-0.064-0.525s-0.398-0.098-0.525 0.064l-1.289 1.65c-0.127 0.163-0.098 0.398 0.064 0.525z"></path>
      <path d="M17.778 7.504c-0.019 0.137 0.038 0.267 0.14 0.347 0.050 0.039 0.111 0.066 0.178 0.075 0.204 0.029 0.394-0.114 0.422-0.318l0.291-2.073c0.029-0.205-0.114-0.394-0.318-0.422s-0.394 0.114-0.422 0.318l-0.291 2.073z"></path>
      <path d="M20.908 22.622l-0.784-1.941c-0.077-0.192-0.295-0.284-0.487-0.207s-0.284 0.295-0.207 0.487l0.784 1.941c0.025 0.063 0.066 0.115 0.116 0.154 0.102 0.080 0.242 0.104 0.371 0.052 0.192-0.077 0.284-0.295 0.207-0.487z"></path>
      <path d="M13.463 6.192l0.784 1.941c0.025 0.063 0.066 0.115 0.116 0.154 0.102 0.080 0.242 0.104 0.371 0.052 0.191-0.077 0.284-0.295 0.207-0.487l-0.784-1.941c-0.077-0.192-0.295-0.284-0.487-0.207s-0.284 0.295-0.207 0.487z"></path>
      <path d="M24.517 19.66l-1.65-1.289c-0.163-0.127-0.398-0.098-0.525 0.064s-0.098 0.398 0.064 0.525l1.65 1.289c0.163 0.127 0.398 0.098 0.525-0.064s0.098-0.398-0.064-0.525z"></path>
      <path d="M12.029 10.379c0.127-0.163 0.098-0.398-0.064-0.525l-1.65-1.289c-0.163-0.127-0.398-0.098-0.525 0.064s-0.098 0.398 0.064 0.525l1.65 1.289c0.163 0.127 0.398 0.098 0.525-0.064z"></path>
      <path d="M23.807 15.665c0.050 0.039 0.111 0.066 0.178 0.075l2.073 0.291c0.204 0.029 0.394-0.114 0.422-0.318s-0.114-0.394-0.318-0.422l-2.073-0.291c-0.204-0.029-0.394 0.114-0.422 0.318-0.019 0.137 0.038 0.267 0.14 0.347z"></path>
      <path d="M10.387 13.074l-2.073-0.291c-0.204-0.029-0.394 0.114-0.422 0.318-0.019 0.137 0.038 0.267 0.14 0.347 0.050 0.039 0.111 0.066 0.178 0.075l2.073 0.291c0.204 0.029 0.394-0.114 0.422-0.318s-0.114-0.394-0.318-0.422z"></path>
      <path d="M23.253 11.956c0.025 0.063 0.066 0.115 0.116 0.154 0.102 0.080 0.242 0.104 0.371 0.052l1.941-0.784c0.192-0.077 0.284-0.295 0.207-0.487s-0.295-0.284-0.487-0.207l-1.941 0.784c-0.192 0.077-0.284 0.295-0.207 0.487z"></path>
    </symbol>
  </defs>
</svg>